# Blender v2.77 (sub 0) OBJ File: '81-540.8 Blender Save.blend'
# www.blender.org
mtllib 81-540.8 Collison Phys.mtl
o 81-540_phy_Cube.003
v -1.171947 1.435203 6.116824
v -1.171947 1.544438 6.116824
v -1.171947 1.435203 3.114456
v -1.171947 1.544438 3.114456
v -0.672177 1.435203 6.116824
v -0.672177 1.544438 6.116824
v -0.672177 1.435203 3.114456
v -0.672177 1.544438 3.114456
v 0.666986 1.435203 6.116825
v 0.666986 1.544438 6.116825
v 0.666986 1.435203 3.114457
v 0.666986 1.544438 3.114457
v 1.166756 1.435203 6.116825
v 1.166756 1.544438 6.116825
v 1.166756 1.435203 3.114457
v 1.166756 1.544438 3.114457
v -1.171947 1.435203 1.492993
v -1.171947 1.544438 1.492993
v -1.171947 1.435203 -1.509375
v -1.171947 1.544438 -1.509375
v -0.672177 1.435203 1.492993
v -0.672177 1.544438 1.492993
v -0.672177 1.435203 -1.509375
v -0.672177 1.544438 -1.509375
v 0.666986 1.435203 1.492994
v 0.666986 1.544438 1.492994
v 0.666986 1.435203 -1.509374
v 0.666986 1.544438 -1.509374
v 1.166756 1.435203 1.492995
v 1.166756 1.544438 1.492995
v 1.166756 1.435203 -1.509373
v 1.166756 1.544438 -1.509373
v -1.171947 1.435203 -3.114297
v -1.171947 1.544438 -3.114297
v -1.171947 1.435203 -6.116665
v -1.171947 1.544438 -6.116665
v -0.672177 1.435203 -3.114297
v -0.672177 1.544438 -3.114297
v -0.672177 1.435203 -6.116665
v -0.672177 1.544438 -6.116665
v 0.666986 1.435203 -3.114296
v 0.666986 1.544438 -3.114296
v 0.666986 1.435203 -6.116664
v 0.666986 1.544438 -6.116664
v 1.166756 1.435203 -3.114295
v 1.166756 1.544438 -3.114295
v 1.166756 1.435203 -6.116663
v 1.166756 1.544438 -6.116663
v -1.171947 1.435203 -7.721360
v -1.171947 1.544438 -7.721360
v -1.171947 1.435203 -9.083863
v -1.171947 1.544438 -9.083863
v -0.672177 1.435203 -7.721360
v -0.672177 1.544438 -7.721360
v -0.672177 1.435203 -9.083863
v -0.672177 1.544438 -9.083863
v 0.666986 1.435203 -7.721358
v 0.666986 1.544438 -7.721358
v 0.666986 1.435203 -9.083862
v 0.666986 1.544438 -9.083862
v 1.166756 1.435203 -7.721358
v 1.166756 1.544438 -7.721358
v 1.166756 1.435203 -9.083862
v 1.166756 1.544438 -9.083862
v 0.327226 2.955462 7.701874
v 0.327226 3.336743 7.701874
v 0.327226 2.955462 7.641901
v 0.327226 3.336743 7.641901
v 1.110678 2.955462 7.701874
v 1.110678 3.336743 7.701874
v 1.110678 2.955462 7.641901
v 1.110678 3.336743 7.641901
v -1.094082 1.067198 7.941322
v -1.094082 3.457700 7.941322
v -1.094082 1.067198 7.654915
v -1.094082 3.457700 7.654915
v 0.310767 1.067198 7.941322
v 0.310767 3.457700 7.941322
v 0.310767 1.067198 7.654915
v 0.310767 3.457700 7.654915
v 1.004941 3.389861 9.725962
v 1.004941 3.038416 9.725962
v 1.004941 3.389861 -8.288502
v 1.004941 3.038416 -8.288502
v 1.333700 3.389861 9.725962
v 1.333700 3.038416 9.725962
v 1.333700 3.389861 -8.288502
v 1.333700 3.038416 -8.288502
v -1.154397 1.052538 9.846009
v -1.154397 0.966892 9.846009
v -1.154397 1.052538 8.661532
v -1.154397 0.966892 8.661532
v 1.189709 1.052538 9.846009
v 1.189709 0.966892 9.846009
v 1.189709 1.052538 8.661532
v 1.189709 0.966892 8.661532
v -0.497697 3.000684 -9.407367
v -0.497697 3.458593 -9.407367
v -0.497697 3.000684 -9.092066
v -0.497697 3.458593 -9.092066
v 0.480753 3.000684 -9.407367
v 0.480753 3.458593 -9.407367
v 0.480753 3.000684 -9.092066
v 0.480753 3.458593 -9.092066
v 0.470649 0.969879 -9.369579
v 0.470649 3.492088 -9.369579
v 0.478253 0.969879 -9.413881
v 0.478253 3.492088 -9.413881
v 1.330624 0.969879 -9.213802
v 1.330624 3.492088 -9.213802
v 1.338228 0.969879 -9.258104
v 1.338228 3.492088 -9.258104
v -1.272018 0.879141 9.930242
v -1.272018 3.531659 9.930242
v -1.272018 0.879141 9.797081
v -1.272018 3.531659 9.797081
v 0.176860 0.879141 9.930242
v 0.176860 3.531659 9.930242
v 0.176860 0.879141 9.797081
v 0.176860 3.531659 9.797081
v -1.290187 0.951756 9.233177
v -1.290187 1.120913 9.233177
v -1.290187 0.951756 -9.233177
v -1.290187 1.120913 -9.233177
v 1.290187 0.951756 9.233177
v 1.290187 1.120913 9.233177
v 1.290187 0.951756 -9.233177
v 1.290187 1.120913 -9.233177
v -1.290187 3.364433 9.233177
v -1.290187 3.533590 9.233177
v -1.290187 3.364433 -9.233177
v -1.290187 3.533590 -9.233177
v 1.290187 3.364433 9.233177
v 1.290187 3.533590 9.233177
v 1.290187 3.364433 -9.233177
v 1.290187 3.533590 -9.233177
v 1.169099 3.520305 1.583140
v 1.333759 3.520305 1.583140
v 1.169099 3.520305 -1.583140
v 1.333759 3.520305 -1.583140
v 1.169099 0.869465 1.583140
v 1.333759 0.869465 1.583140
v 1.169099 0.869465 -1.583140
v 1.333759 0.869465 -1.583140
v 1.169099 3.520305 6.199184
v 1.333759 3.520305 6.199184
v 1.169099 3.520305 3.032905
v 1.333759 3.520305 3.032905
v 1.169099 0.869465 6.199184
v 1.333759 0.869465 6.199184
v 1.169099 0.869465 3.032905
v 1.333759 0.869465 3.032905
v 1.169099 3.520305 -3.034906
v 1.333759 3.520305 -3.034906
v 1.169099 3.520305 -6.201186
v 1.333759 3.520305 -6.201186
v 1.169099 0.869465 -3.034906
v 1.333759 0.869465 -3.034906
v 1.169099 0.869465 -6.201186
v 1.333759 0.869465 -6.201186
v 1.169099 3.520305 -7.629698
v 1.333759 3.520305 -7.629698
v 1.169099 3.520305 -9.203943
v 1.333759 3.520305 -9.203943
v 1.169099 0.869465 -7.629698
v 1.333759 0.869465 -7.629698
v 1.169099 0.869465 -9.203943
v 1.333759 0.869465 -9.203943
v 1.169099 3.520305 8.362523
v 1.333759 3.520305 8.362523
v 1.169099 3.520305 7.573411
v 1.333759 3.520305 7.573411
v 1.169099 0.869465 8.362523
v 1.333759 0.869465 8.362523
v 1.169099 0.869465 7.573411
v 1.333759 0.869465 7.573411
v 1.169099 3.520305 9.895998
v 1.333759 3.520305 9.895998
v 1.169099 3.520305 9.106885
v 1.333759 3.520305 9.106885
v 1.169099 0.869465 9.895998
v 1.333759 0.869465 9.895998
v 1.169099 0.869465 9.106885
v 1.333759 0.869465 9.106885
v -1.329147 3.520305 1.583140
v -1.164487 3.520305 1.583140
v -1.329147 3.520305 -1.583140
v -1.164487 3.520305 -1.583140
v -1.329147 0.869465 1.583140
v -1.164487 0.869465 1.583140
v -1.329147 0.869465 -1.583140
v -1.164487 0.869465 -1.583140
v -1.329147 3.520305 6.199184
v -1.164487 3.520305 6.199184
v -1.329147 3.520305 3.032905
v -1.164487 3.520305 3.032905
v -1.329147 0.869465 6.199184
v -1.164487 0.869465 6.199184
v -1.329147 0.869465 3.032905
v -1.164487 0.869465 3.032905
v -1.329147 3.520305 -3.034906
v -1.164487 3.520305 -3.034906
v -1.329147 3.520305 -6.201186
v -1.164487 3.520305 -6.201186
v -1.329147 0.869465 -3.034906
v -1.164487 0.869465 -3.034906
v -1.329147 0.869465 -6.201186
v -1.164486 0.869465 -6.201186
v -1.329147 3.520305 -7.629698
v -1.164487 3.520305 -7.629698
v -1.329147 3.520305 -9.203943
v -1.164487 3.520305 -9.203943
v -1.329147 0.869465 -7.629698
v -1.164487 0.869465 -7.629698
v -1.329147 0.869465 -9.203943
v -1.164487 0.869465 -9.203943
v -1.329147 3.520305 8.362523
v -1.164487 3.520305 8.362523
v -1.329147 3.520305 7.573411
v -1.164487 3.520305 7.573411
v -1.329147 0.869465 8.362523
v -1.164487 0.869465 8.362523
v -1.329147 0.869465 7.573411
v -1.164487 0.869465 7.573411
v -1.329147 3.520305 9.895998
v -1.164487 3.520305 9.895998
v -1.329147 3.520305 9.106885
v -1.164487 3.520305 9.106885
v -1.329147 0.869465 9.895998
v -1.164487 0.869465 9.895998
v -1.329147 0.869465 9.106885
v -1.164487 0.869465 9.106885
v -1.331102 0.969879 -9.213802
v -1.331102 3.492088 -9.213802
v -1.338706 0.969879 -9.258104
v -1.338706 3.492088 -9.258104
v -0.471128 0.969879 -9.369579
v -0.471128 3.492088 -9.369579
v -0.478732 0.969879 -9.413881
v -0.478732 3.492088 -9.413881
v -1.154397 3.419269 9.846009
v -1.154397 3.333623 9.846009
v -1.154397 3.419269 8.661532
v -1.154397 3.333623 8.661532
v 1.189709 3.419269 9.846009
v 1.189709 3.333623 9.846009
v 1.189709 3.419269 8.661532
v 1.189709 3.333623 8.661532
v -1.329087 3.389861 9.725962
v -1.329087 3.038416 9.725962
v -1.329087 3.389861 -8.288502
v -1.329087 3.038416 -8.288502
v -1.000327 3.389861 9.725962
v -1.000327 3.038416 9.725962
v -1.000327 3.389861 -8.288502
v -1.000327 3.038416 -8.288502
vn -0.5773 0.5773 0.5773
vn -0.5773 0.5773 -0.5773
vn -0.5773 -0.5773 -0.5773
vn -0.5773 -0.5773 0.5773
vn 0.5773 0.5773 -0.5773
vn 0.5773 -0.5773 -0.5773
vn 0.5773 0.5773 0.5773
vn 0.5773 -0.5773 0.5773
vn -0.6686 0.5778 0.4681
vn -0.4685 0.5769 -0.6691
vn -0.4685 -0.5769 -0.6691
vn -0.6686 -0.5778 0.4681
vn 0.6686 0.5778 -0.4681
vn 0.6686 -0.5778 -0.4681
vn 0.4685 0.5769 0.6691
vn 0.4685 -0.5769 0.6691
vn -0.4685 0.5769 0.6691
vn -0.6686 0.5778 -0.4681
vn -0.6686 -0.5778 -0.4681
vn -0.4685 -0.5769 0.6691
vn 0.4685 0.5769 -0.6691
vn 0.4685 -0.5769 -0.6691
vn 0.6686 0.5778 0.4681
vn 0.6686 -0.5778 0.4681
usemtl None
s 1
f 2//1 4//2 3//3 1//4
f 4//2 8//5 7//6 3//3
f 8//5 6//7 5//8 7//6
f 6//7 2//1 1//4 5//8
f 1//4 3//3 7//6 5//8
f 6//7 8//5 4//2 2//1
f 10//1 12//2 11//3 9//4
f 12//2 16//5 15//6 11//3
f 16//5 14//7 13//8 15//6
f 14//7 10//1 9//4 13//8
f 9//4 11//3 15//6 13//8
f 14//7 16//5 12//2 10//1
f 18//1 20//2 19//3 17//4
f 20//2 24//5 23//6 19//3
f 24//5 22//7 21//8 23//6
f 22//7 18//1 17//4 21//8
f 17//4 19//3 23//6 21//8
f 22//7 24//5 20//2 18//1
f 26//1 28//2 27//3 25//4
f 28//2 32//5 31//6 27//3
f 32//5 30//7 29//8 31//6
f 30//7 26//1 25//4 29//8
f 25//4 27//3 31//6 29//8
f 30//7 32//5 28//2 26//1
f 34//1 36//2 35//3 33//4
f 36//2 40//5 39//6 35//3
f 40//5 38//7 37//8 39//6
f 38//7 34//1 33//4 37//8
f 33//4 35//3 39//6 37//8
f 38//7 40//5 36//2 34//1
f 42//1 44//2 43//3 41//4
f 44//2 48//5 47//6 43//3
f 48//5 46//7 45//8 47//6
f 46//7 42//1 41//4 45//8
f 41//4 43//3 47//6 45//8
f 46//7 48//5 44//2 42//1
f 50//1 52//2 51//3 49//4
f 52//2 56//5 55//6 51//3
f 56//5 54//7 53//8 55//6
f 54//7 50//1 49//4 53//8
f 49//4 51//3 55//6 53//8
f 54//7 56//5 52//2 50//1
f 58//1 60//2 59//3 57//4
f 60//2 64//5 63//6 59//3
f 64//5 62//7 61//8 63//6
f 62//7 58//1 57//4 61//8
f 57//4 59//3 63//6 61//8
f 62//7 64//5 60//2 58//1
f 66//1 68//2 67//3 65//4
f 68//2 72//5 71//6 67//3
f 72//5 70//7 69//8 71//6
f 70//7 66//1 65//4 69//8
f 65//4 67//3 71//6 69//8
f 70//7 72//5 68//2 66//1
f 74//1 76//2 75//3 73//4
f 76//2 80//5 79//6 75//3
f 80//5 78//7 77//8 79//6
f 78//7 74//1 73//4 77//8
f 73//4 75//3 79//6 77//8
f 78//7 80//5 76//2 74//1
f 82//5 84//7 83//8 81//6
f 84//7 88//1 87//4 83//8
f 88//1 86//2 85//3 87//4
f 86//2 82//5 81//6 85//3
f 81//6 83//8 87//4 85//3
f 86//2 88//1 84//7 82//5
f 90//5 92//7 91//8 89//6
f 92//7 96//1 95//4 91//8
f 96//1 94//2 93//3 95//4
f 94//2 90//5 89//6 93//3
f 89//6 91//8 95//4 93//3
f 94//2 96//1 92//7 90//5
f 98//8 100//6 99//5 97//7
f 100//6 104//3 103//2 99//5
f 104//3 102//4 101//1 103//2
f 102//4 98//8 97//7 101//1
f 97//7 99//5 103//2 101//1
f 102//4 104//3 100//6 98//8
f 106//9 108//10 107//11 105//12
f 108//10 112//13 111//14 107//11
f 112//13 110//15 109//16 111//14
f 110//15 106//9 105//12 109//16
f 105//12 107//11 111//14 109//16
f 110//15 112//13 108//10 106//9
f 114//1 116//2 115//3 113//4
f 116//2 120//5 119//6 115//3
f 120//5 118//7 117//8 119//6
f 118//7 114//1 113//4 117//8
f 113//4 115//3 119//6 117//8
f 118//7 120//5 116//2 114//1
f 122//1 124//2 123//3 121//4
f 124//2 128//5 127//6 123//3
f 128//5 126//7 125//8 127//6
f 126//7 122//1 121//4 125//8
f 121//4 123//3 127//6 125//8
f 126//7 128//5 124//2 122//1
f 130//1 132//2 131//3 129//4
f 132//2 136//5 135//6 131//3
f 136//5 134//7 133//8 135//6
f 134//7 130//1 129//4 133//8
f 129//4 131//3 135//6 133//8
f 134//7 136//5 132//2 130//1
f 138//7 140//5 139//2 137//1
f 140//5 144//6 143//3 139//2
f 144//6 142//8 141//4 143//3
f 142//8 138//7 137//1 141//4
f 137//1 139//2 143//3 141//4
f 142//8 144//6 140//5 138//7
f 146//7 148//5 147//2 145//1
f 148//5 152//6 151//3 147//2
f 152//6 150//8 149//4 151//3
f 150//8 146//7 145//1 149//4
f 145//1 147//2 151//3 149//4
f 150//8 152//6 148//5 146//7
f 154//7 156//5 155//2 153//1
f 156//5 160//6 159//3 155//2
f 160//6 158//8 157//4 159//3
f 158//8 154//7 153//1 157//4
f 153//1 155//2 159//3 157//4
f 158//8 160//6 156//5 154//7
f 162//7 164//5 163//2 161//1
f 164//5 168//6 167//3 163//2
f 168//6 166//8 165//4 167//3
f 166//8 162//7 161//1 165//4
f 161//1 163//2 167//3 165//4
f 166//8 168//6 164//5 162//7
f 170//7 172//5 171//2 169//1
f 172//5 176//6 175//3 171//2
f 176//6 174//8 173//4 175//3
f 174//8 170//7 169//1 173//4
f 169//1 171//2 175//3 173//4
f 174//8 176//6 172//5 170//7
f 178//7 180//5 179//2 177//1
f 180//5 184//6 183//3 179//2
f 184//6 182//8 181//4 183//3
f 182//8 178//7 177//1 181//4
f 177//1 179//2 183//3 181//4
f 182//8 184//6 180//5 178//7
f 186//7 188//5 187//2 185//1
f 188//5 192//6 191//3 187//2
f 192//6 190//8 189//4 191//3
f 190//8 186//7 185//1 189//4
f 185//1 187//2 191//3 189//4
f 190//8 192//6 188//5 186//7
f 194//7 196//5 195//2 193//1
f 196//5 200//6 199//3 195//2
f 200//6 198//8 197//4 199//3
f 198//8 194//7 193//1 197//4
f 193//1 195//2 199//3 197//4
f 198//8 200//6 196//5 194//7
f 202//7 204//5 203//2 201//1
f 204//5 208//6 207//3 203//2
f 208//6 206//8 205//4 207//3
f 206//8 202//7 201//1 205//4
f 201//1 203//2 207//3 205//4
f 206//8 208//6 204//5 202//7
f 210//7 212//5 211//2 209//1
f 212//5 216//6 215//3 211//2
f 216//6 214//8 213//4 215//3
f 214//8 210//7 209//1 213//4
f 209//1 211//2 215//3 213//4
f 214//8 216//6 212//5 210//7
f 218//7 220//5 219//2 217//1
f 220//5 224//6 223//3 219//2
f 224//6 222//8 221//4 223//3
f 222//8 218//7 217//1 221//4
f 217//1 219//2 223//3 221//4
f 222//8 224//6 220//5 218//7
f 226//7 228//5 227//2 225//1
f 228//5 232//6 231//3 227//2
f 232//6 230//8 229//4 231//3
f 230//8 226//7 225//1 229//4
f 225//1 227//2 231//3 229//4
f 230//8 232//6 228//5 226//7
f 234//17 236//18 235//19 233//20
f 236//18 240//21 239//22 235//19
f 240//21 238//23 237//24 239//22
f 238//23 234//17 233//20 237//24
f 233//20 235//19 239//22 237//24
f 238//23 240//21 236//18 234//17
f 242//5 244//7 243//8 241//6
f 244//7 248//1 247//4 243//8
f 248//1 246//2 245//3 247//4
f 246//2 242//5 241//6 245//3
f 241//6 243//8 247//4 245//3
f 246//2 248//1 244//7 242//5
f 250//5 252//7 251//8 249//6
f 252//7 256//1 255//4 251//8
f 256//1 254//2 253//3 255//4
f 254//2 250//5 249//6 253//3
f 249//6 251//8 255//4 253//3
f 254//2 256//1 252//7 250//5
